<svg width="81" height="103" viewBox="0 0 81 103" fill="none" xmlns="http://www.w3.org/2000/svg">
<g clip-path="url(#clip0)">
<path fill-rule="evenodd" clip-rule="evenodd" d="M14.2001 87.2999C12.4001 85.7999 10.4001 85.0999 8.0001 85.0999C6.0001 85.0999 4.2001 85.4999 2.6001 86.3999C2.1001 86.6999 1.6001 86.9999 1.1001 87.3999C1.0001 87.4999 0.800098 87.6999 0.600098 87.8999L0.400098 88.0999L0.100098 88.3999L1.1001 89.4999L1.3001 89.2999L1.4001 89.1999C1.6001 88.9999 1.8001 88.8999 1.8001 88.7999C2.2001 88.4999 2.7001 88.1999 3.1001 87.8999C4.6001 86.9999 6.2001 86.5999 8.0001 86.5999C10.1001 86.5999 11.9001 87.1999 13.4001 88.4999C14.7001 89.5999 15.4001 91.0999 15.6001 92.6999H8.0001V94.1999H15.6001C15.5001 95.9999 14.8001 97.4999 13.5001 98.6999C12.1001 100.1 10.3001 100.8 8.2001 100.8C6.5001 100.8 4.9001 100.4 3.5001 99.5999C3.0001 99.2999 2.5001 98.9999 2.0001 98.5999C2.0001 98.4999 1.9001 98.4999 1.7001 98.2999C1.6001 98.1999 1.5001 98.1999 1.4001 98.0999L1.2001 97.8999L1.1001 97.7999L1.2001 97.9999L0.100098 99.0999L0.200098 99.1999L0.300098 99.2999L0.600098 99.4999C0.700098 99.5999 0.700098 99.5999 0.900098 99.7999C1.0001 99.8999 1.2001 99.9999 1.2001 100.1C1.6001 100.4 2.2001 100.8 2.9001 101.2C4.6001 102.2 6.4001 102.6 8.3001 102.6C10.5001 102.6 12.5001 101.9 14.3001 100.5C16.3001 98.7999 17.3001 96.6999 17.3001 93.8999C17.2001 91.0999 16.1001 88.8999 14.2001 87.2999Z" fill="white" stroke="white" stroke-width="0.1037" stroke-miterlimit="10"/>
<path fill-rule="evenodd" clip-rule="evenodd" d="M30.5002 97L23.8002 85.5H22.2002V102.1H23.8002V88.4L30.5002 99.8L37.1002 88.4H37.2002V102.1H38.7002V85.5H37.2002L30.5002 97Z" fill="white" stroke="white" stroke-width="0.1037" stroke-miterlimit="10"/>
<path fill-rule="evenodd" clip-rule="evenodd" d="M47.1 99.9H47V85.5H45.5V102.1H47L58.7 87.7H58.8V102.1H60.2V85.5H58.8L47.1 99.9Z" fill="white" stroke="white" stroke-width="0.1037" stroke-miterlimit="10"/>
<path fill-rule="evenodd" clip-rule="evenodd" d="M79.2 94.6999C78.9 94.3999 78.7 94.1999 78.4 93.8999C78.3 93.7999 78.2 93.7999 78 93.5999L77.9 93.4999C77.8 93.3999 77.8 93.3999 77.7 93.3999L77.8 93.2999L77.9 93.1999C78 93.1999 78 92.9999 78.1 92.9999C78.4 92.6999 78.5 92.4999 78.7 92.1999C79.1 91.4999 79.3 90.6999 79.3 89.7999C79.3 88.4999 78.9 87.3999 78 86.5999C77.1 85.7999 76 85.3999 74.7 85.3999H66.4V86.9999H74.7C75.7 86.9999 76.6 87.2999 77.1 87.7999C77.6 88.2999 77.9 88.9999 77.9 89.8999C77.9 90.6999 77.6 91.4999 77 92.0999C76.4 92.5999 75.7 92.8999 74.8 92.8999H72.1V94.3999H74.8C76 94.3999 77 94.6999 77.6 95.1999C78.4 95.7999 78.7 96.5999 78.7 97.5999C78.7 99.5999 77.4 100.7 74.8 100.7H66V102.2H74.8C76.4 102.2 77.7 101.8 78.8 101C79.8 100.2 80.3 99.0999 80.3 97.6999C80.1 96.4999 79.8 95.4999 79.2 94.6999Z" fill="white" stroke="white" stroke-width="0.1037" stroke-miterlimit="10"/>
<path fill-rule="evenodd" clip-rule="evenodd" d="M54.0002 56.3999C54.1002 54.6999 52.7002 54.6999 52.5002 56.2999C52.2002 59.2999 50.9002 62.0999 48.9002 64.0999C46.6002 66.2999 43.5002 67.6999 40.0002 67.6999C36.5002 67.6999 33.3002 66.2999 31.1002 64.0999C28.8002 61.7999 27.4002 58.6999 27.4002 55.1999C27.4002 51.7999 28.8002 48.5999 31.1002 46.2999C33.3002 44.0999 36.5002 42.6999 40.0002 42.6999C41.3002 42.6999 42.8002 42.8999 44.0002 43.2999C45.2002 43.6999 46.4002 44.2999 47.4002 44.9999C48.4002 45.7999 50.1002 46.9999 52.2002 48.0999C58.0002 50.9999 64.4002 50.7999 69.3002 45.8999C71.8002 43.2999 73.4002 39.7999 73.4002 35.8999C73.4002 32.0999 71.8002 28.5999 69.3002 25.9999C66.7002 23.4999 63.2002 21.8999 59.3002 21.8999C57.3002 21.8999 55.3002 22.2999 53.5002 23.1999C43.1002 27.8999 39.9002 43.8999 20.7002 45.0999C20.4002 45.1999 20.3002 45.1999 20.0002 45.1999C16.9002 45.1999 14.0002 43.8999 11.9002 41.6999C9.8002 39.5999 8.4002 36.6999 8.2002 33.4999C8.2002 33.1999 8.2002 32.8999 8.2002 32.6999C8.2002 29.1999 9.6002 26.0999 11.9002 23.7999C14.1002 21.4999 17.3002 20.0999 20.8002 20.0999C22.5002 20.0999 24.1002 20.3999 25.6002 21.0999C27.1002 21.6999 28.5002 22.5999 29.7002 23.7999V23.6999C30.6002 24.5999 31.6002 25.3999 32.6002 25.8999C35.7002 27.7999 39.5002 28.2999 43.2002 27.2999C45.8002 26.6999 48.0002 25.2999 49.8002 23.3999C51.3002 21.7999 52.4002 19.8999 53.1002 17.6999C53.5002 16.1999 52.2002 15.6999 51.7002 17.3999C51.1002 19.2999 50.1002 20.9999 48.8002 22.3999C47.3002 24.0999 45.2002 25.2999 42.9002 25.8999C39.6002 26.7999 36.2002 26.1999 33.4002 24.5999C30.6002 22.9999 28.5002 20.2999 27.5002 16.8999C26.6002 13.5999 27.2002 10.1999 28.8002 7.39995C30.3002 4.99995 33.0002 2.89995 36.4002 1.99995C37.7002 1.59995 39.0002 1.49995 40.3002 1.59995C41.3002 1.69995 42.3002 1.89995 43.2002 2.09995C44.7002 2.49995 45.2002 1.19995 43.6002 0.699946C42.6002 0.399946 41.5002 0.199946 40.3002 0.0999463C38.9002 -5.37112e-05 37.4002 0.199946 36.0002 0.599946C32.2002 1.59995 29.3002 3.99995 27.5002 7.09995C25.6002 10.1999 25.1002 13.9999 26.1002 17.6999C26.3002 18.6999 26.7002 19.5999 27.1002 20.3999C26.8002 20.1999 26.5002 20.0999 26.2002 19.9999C24.5002 19.2999 22.7002 18.8999 20.8002 18.8999C16.9002 18.8999 13.4002 20.4999 10.9002 22.9999C8.3002 25.4999 6.7002 28.9999 6.7002 32.8999C6.7002 33.1999 6.7002 33.4999 6.8002 33.7999C7.0002 37.3999 8.5002 40.5999 10.9002 42.9999C13.3002 45.3999 16.5002 46.9999 20.1002 46.9999C20.4002 46.9999 20.6002 46.8999 20.9002 46.8999C25.0002 46.5999 28.4002 45.7999 31.2002 44.4999C32.4002 43.4999 33.8002 42.6999 35.4002 42.1999C43.5002 36.6999 47.2002 28.0999 54.1002 24.8999C55.8002 24.0999 57.6002 23.7999 59.3002 23.7999C62.8002 23.7999 66.0002 25.1999 68.3002 27.3999C70.5002 29.6999 71.9002 32.7999 71.9002 36.2999C71.9002 39.7999 70.5002 42.8999 68.3002 45.1999C63.9002 49.4999 58.2002 49.6999 52.9002 47.0999C50.9002 46.0999 49.3002 44.9999 48.4002 44.1999C47.2002 43.1999 45.9002 42.5999 44.6002 42.1999C43.2002 41.7999 41.7002 41.4999 40.1002 41.4999C38.5002 41.4999 36.9002 41.7999 35.4002 42.2999C34.1002 43.1999 32.7002 43.9999 31.2002 44.5999C30.8002 44.8999 30.5002 45.1999 30.1002 45.5999C27.5002 48.1999 25.9002 51.6999 25.9002 55.4999C25.9002 59.3999 27.5002 62.8999 30.1002 65.4999C32.6002 67.9999 36.1002 69.5999 40.0002 69.5999C43.8002 69.5999 47.4002 67.9999 49.9002 65.4999C52.2002 62.8999 53.7002 59.7999 54.0002 56.3999Z" fill="white" stroke="white" stroke-width="0.1037" stroke-miterlimit="10"/>
</g>
<defs>
<clipPath id="clip0">
<rect width="80.1" height="102.5" fill="white"/>
</clipPath>
</defs>
</svg>
